<?xml version="1.0" encoding="utf-8"?>
<!-- Generator: Adobe Illustrator 14.0.0, SVG Export Plug-In . SVG Version: 6.00 Build 43363)  -->
<!DOCTYPE svg PUBLIC "-//W3C//DTD SVG 1.1//EN" "http://www.w3.org/Graphics/SVG/1.1/DTD/svg11.dtd">
<svg version="1.1" id="Ebene_1" xmlns="http://www.w3.org/2000/svg" xmlns:xlink="http://www.w3.org/1999/xlink" x="0px" y="0px"
	 width="88px" height="90px" viewBox="0 0 88 90" enable-background="new 0 0 88 90" xml:space="preserve">
<polygon fill="none" stroke="#1A171B" stroke-width="1.0001" stroke-linecap="round" stroke-miterlimit="2.6131" points="
	8.465,10.39 79.332,10.39 79.332,81.256 8.465,81.256 8.465,10.39 "/>
<g>
	<path fill="#1A171B" d="M49.285,17.549l0.311,3.762h-0.311c-0.313-0.938-0.717-1.644-1.213-2.118
		c-0.715-0.686-1.634-1.028-2.756-1.028c-1.529,0-2.692,0.601-3.49,1.802c-0.667,1.014-1.001,2.221-1.001,3.621
		c0,1.137,0.221,2.174,0.665,3.111c0.443,0.938,1.022,1.625,1.74,2.061s1.454,0.655,2.21,0.655c0.443,0,0.871-0.056,1.285-0.167
		c0.413-0.111,0.812-0.275,1.195-0.492V25.31c0-0.598-0.046-0.989-0.137-1.173c-0.092-0.185-0.233-0.325-0.426-0.422
		c-0.191-0.097-0.529-0.145-1.014-0.145v-0.334h4.65v0.334h-0.222c-0.46,0-0.776,0.152-0.947,0.457
		c-0.118,0.217-0.178,0.645-0.178,1.283v3.647c-0.679,0.363-1.35,0.63-2.011,0.8s-1.396,0.255-2.206,0.255
		c-2.32,0-4.083-0.738-5.288-2.215c-0.904-1.107-1.355-2.385-1.355-3.832c0-1.049,0.254-2.054,0.762-3.015
		c0.603-1.143,1.429-2.021,2.48-2.637c0.88-0.51,1.919-0.765,3.118-0.765c0.438,0,0.834,0.035,1.191,0.105s0.864,0.226,1.52,0.466
		c0.33,0.123,0.552,0.185,0.664,0.185s0.208-0.051,0.288-0.154s0.129-0.303,0.146-0.602H49.285z"/>
</g>
<path fill="none" stroke="#1A171B" stroke-width="1.0001" stroke-linecap="round" stroke-miterlimit="2.6131" d="M20.883,53.782
	c7.502-10.14,14.688-10.14,21.556,0 M42.104,53.354c7.503,10.14,14.687,10.14,21.556,0 M25.889,69.569l26.805-26.804"/>
<polygon fill-rule="evenodd" clip-rule="evenodd" fill="#1A171B" points="58.32,37.138 51.139,41.36 54.098,44.321 58.32,37.138 "/>
<g>
	<path fill="#1A171B" d="M66.675,35.85l-0.123,0.451h-0.998l-0.752,2.987c-0.333,1.317-0.668,2.336-1.005,3.056
		c-0.479,1.017-0.993,1.718-1.545,2.105c-0.419,0.296-0.839,0.444-1.258,0.444c-0.273,0-0.506-0.082-0.697-0.246
		c-0.142-0.114-0.212-0.262-0.212-0.444c0-0.146,0.058-0.272,0.175-0.38c0.115-0.106,0.258-0.16,0.427-0.16
		c0.123,0,0.227,0.039,0.312,0.116c0.084,0.077,0.126,0.166,0.126,0.267s-0.048,0.193-0.144,0.28
		c-0.073,0.063-0.109,0.111-0.109,0.144c0,0.041,0.016,0.073,0.048,0.096c0.041,0.032,0.104,0.048,0.191,0.048
		c0.196,0,0.402-0.062,0.618-0.185c0.217-0.123,0.409-0.307,0.578-0.551c0.169-0.243,0.328-0.596,0.479-1.056
		c0.063-0.191,0.234-0.822,0.513-1.894l1.189-4.628h-1.189l0.096-0.451c0.378,0,0.643-0.026,0.793-0.079
		c0.15-0.052,0.288-0.152,0.413-0.301c0.126-0.147,0.289-0.425,0.489-0.83c0.269-0.547,0.526-0.971,0.772-1.271
		c0.337-0.405,0.691-0.71,1.063-0.912c0.372-0.203,0.722-0.305,1.05-0.305c0.347,0,0.624,0.088,0.834,0.264
		c0.21,0.175,0.314,0.365,0.314,0.57c0,0.159-0.053,0.294-0.157,0.403s-0.239,0.164-0.403,0.164c-0.142,0-0.257-0.041-0.345-0.123
		c-0.09-0.082-0.134-0.18-0.134-0.294c0-0.073,0.029-0.163,0.089-0.27c0.06-0.107,0.089-0.18,0.089-0.216
		c0-0.063-0.021-0.111-0.062-0.144c-0.06-0.046-0.146-0.068-0.26-0.068c-0.287,0-0.545,0.091-0.772,0.273
		c-0.306,0.241-0.579,0.62-0.82,1.135c-0.123,0.269-0.349,0.937-0.677,2.003H66.675z"/>
</g>
</svg>
