<?xml version="1.0" encoding="UTF-8" standalone="no"?>
<!-- Created with Inkscape (http://www.inkscape.org/) -->

<svg
   xmlns:dc="http://purl.org/dc/elements/1.1/"
   xmlns:cc="http://creativecommons.org/ns#"
   xmlns:rdf="http://www.w3.org/1999/02/22-rdf-syntax-ns#"
   xmlns:svg="http://www.w3.org/2000/svg"
   xmlns="http://www.w3.org/2000/svg"
   xmlns:sodipodi="http://sodipodi.sourceforge.net/DTD/sodipodi-0.dtd"
   xmlns:inkscape="http://www.inkscape.org/namespaces/inkscape"
   id="svg4473"
   version="1.1"
   inkscape:version="0.91 r13725"
   xml:space="preserve"
   width="493.75"
   height="390"
   viewBox="0 0 493.75 390"
   sodipodi:docname="fig_N_vs_SNR_diff_pout_diff_maxContPow_th.svg"><metadata
     id="metadata4479"><rdf:RDF><cc:Work
         rdf:about=""><dc:format>image/svg+xml</dc:format><dc:type
           rdf:resource="http://purl.org/dc/dcmitype/StillImage" /><dc:title></dc:title></cc:Work></rdf:RDF></metadata><defs
     id="defs4477"><clipPath
       clipPathUnits="userSpaceOnUse"
       id="clipPath4489"><path
         d="m 1.66797,4.16797 3948.33003,0 0,3115.83003 -3948.33003,0 0,-3115.83003 z"
         id="path4491"
         inkscape:connector-curvature="0" /></clipPath><clipPath
       clipPathUnits="userSpaceOnUse"
       id="clipPath4673"><path
         d="m 330.832,3034.17 0,-2776.67 3519.998,0 0,2776.67 -3519.998,0 z"
         id="path4675"
         inkscape:connector-curvature="0" /></clipPath><clipPath
       clipPathUnits="userSpaceOnUse"
       id="clipPath4689"><path
         d="m 1,4 0,3116 3949,0 L 3950,4 1,4 Z"
         id="path4691"
         inkscape:connector-curvature="0" /></clipPath></defs><sodipodi:namedview
     pagecolor="#ffffff"
     bordercolor="#666666"
     borderopacity="1"
     objecttolerance="10"
     gridtolerance="10"
     guidetolerance="10"
     inkscape:pageopacity="0"
     inkscape:pageshadow="2"
     inkscape:window-width="918"
     inkscape:window-height="1150"
     id="namedview4475"
     showgrid="false"
     inkscape:zoom="1.175641"
     inkscape:cx="128.73352"
     inkscape:cy="223.37023"
     inkscape:window-x="937"
     inkscape:window-y="25"
     inkscape:window-maximized="0"
     inkscape:current-layer="g4483" /><g
     id="g4481"
     inkscape:groupmode="layer"
     inkscape:label="ink_ext_XXXXXX"
     transform="matrix(1.25,0,0,-1.25,0,390)"><g
       id="g4483"
       transform="scale(0.1,0.1)"><g
         id="g4485"><g
           id="g4487"
           clip-path="url(#clipPath4489)"><path
             d="m 0,0 4282.5,0 0,3290 L 0,3290 0,0 Z"
             style="fill:#ffffff;fill-opacity:1;fill-rule:nonzero;stroke:none"
             id="path4493"
             inkscape:connector-curvature="0" /><path
             d="m 330.832,258.332 3519.17,0 0,2775.84 -3519.17,0 0,-2775.84 z"
             style="fill:#ffffff;fill-opacity:1;fill-rule:evenodd;stroke:none"
             id="path4495"
             inkscape:connector-curvature="0" /><path
             d="m 330.832,258.332 0,2775.838 3519.168,0 0,-2775.838 -3519.168,0"
             style="fill:none;stroke:#ffffff;stroke-width:5;stroke-linecap:butt;stroke-linejoin:round;stroke-miterlimit:10;stroke-dasharray:none;stroke-opacity:1"
             id="path4497"
             inkscape:connector-curvature="0" /><path
             d="m 330.832,258.332 3519.168,0"
             style="fill:none;stroke:#000000;stroke-width:5;stroke-linecap:butt;stroke-linejoin:round;stroke-miterlimit:10;stroke-dasharray:none;stroke-opacity:1"
             id="path4499"
             inkscape:connector-curvature="0" /><path
             d="m 330.832,3034.17 3519.168,0"
             style="fill:none;stroke:#000000;stroke-width:5;stroke-linecap:butt;stroke-linejoin:round;stroke-miterlimit:10;stroke-dasharray:none;stroke-opacity:1"
             id="path4501"
             inkscape:connector-curvature="0" /><path
             d="m 330.832,258.332 0,2775.838"
             style="fill:none;stroke:#000000;stroke-width:5;stroke-linecap:butt;stroke-linejoin:round;stroke-miterlimit:10;stroke-dasharray:none;stroke-opacity:1"
             id="path4503"
             inkscape:connector-curvature="0" /><path
             d="m 3850,258.332 0,2775.838"
             style="fill:none;stroke:#000000;stroke-width:5;stroke-linecap:butt;stroke-linejoin:round;stroke-miterlimit:10;stroke-dasharray:none;stroke-opacity:1"
             id="path4505"
             inkscape:connector-curvature="0" /><path
             d="m 330.832,258.332 3519.168,0"
             style="fill:none;stroke:#000000;stroke-width:5;stroke-linecap:butt;stroke-linejoin:round;stroke-miterlimit:10;stroke-dasharray:none;stroke-opacity:1"
             id="path4507"
             inkscape:connector-curvature="0" /><path
             d="m 330.832,258.332 0,2775.838"
             style="fill:none;stroke:#000000;stroke-width:5;stroke-linecap:butt;stroke-linejoin:round;stroke-miterlimit:10;stroke-dasharray:none;stroke-opacity:1"
             id="path4509"
             inkscape:connector-curvature="0" /><path
             d="m 330.832,258.332 0,35.836"
             style="fill:none;stroke:#000000;stroke-width:5;stroke-linecap:butt;stroke-linejoin:round;stroke-miterlimit:10;stroke-dasharray:none;stroke-opacity:1"
             id="path4511"
             inkscape:connector-curvature="0" /><path
             d="m 330.832,3034.17 0,-35"
             style="fill:none;stroke:#000000;stroke-width:5;stroke-linecap:butt;stroke-linejoin:round;stroke-miterlimit:10;stroke-dasharray:none;stroke-opacity:1"
             id="path4513"
             inkscape:connector-curvature="0" /><g
             id="g4515"
             transform="scale(10,10)"><text
               transform="matrix(1,0,0,-1,26.25,15.1668)"
               style="font-variant:normal;font-weight:normal;font-size:8.5px;font-family:Helvetica;-inkscape-font-specification:Helvetica;writing-mode:lr-tb;fill:#000000;fill-opacity:1;fill-rule:nonzero;stroke:none"
               id="text4517"><tspan
                 x="0 4.25 8.9759998"
                 y="0"
                 sodipodi:role="line"
                 id="tspan4519">x01</tspan></text>
</g><path
             d="m 1503.33,258.332 0,35.836"
             style="fill:none;stroke:#000000;stroke-width:5;stroke-linecap:butt;stroke-linejoin:round;stroke-miterlimit:10;stroke-dasharray:none;stroke-opacity:1"
             id="path4521"
             inkscape:connector-curvature="0" /><path
             d="m 1503.33,3034.17 0,-35"
             style="fill:none;stroke:#000000;stroke-width:5;stroke-linecap:butt;stroke-linejoin:round;stroke-miterlimit:10;stroke-dasharray:none;stroke-opacity:1"
             id="path4523"
             inkscape:connector-curvature="0" /><g
             id="g4525"
             transform="scale(10,10)"><text
               transform="matrix(1,0,0,-1,143.5,15.1668)"
               style="font-variant:normal;font-weight:normal;font-size:8.5px;font-family:Helvetica;-inkscape-font-specification:Helvetica;writing-mode:lr-tb;fill:#000000;fill-opacity:1;fill-rule:nonzero;stroke:none"
               id="text4527"><tspan
                 x="0 4.25 8.9759998"
                 y="0"
                 sodipodi:role="line"
                 id="tspan4529">x02</tspan></text>
</g><path
             d="m 2676.67,258.332 0,35.836"
             style="fill:none;stroke:#000000;stroke-width:5;stroke-linecap:butt;stroke-linejoin:round;stroke-miterlimit:10;stroke-dasharray:none;stroke-opacity:1"
             id="path4531"
             inkscape:connector-curvature="0" /><path
             d="m 2676.67,3034.17 0,-35"
             style="fill:none;stroke:#000000;stroke-width:5;stroke-linecap:butt;stroke-linejoin:round;stroke-miterlimit:10;stroke-dasharray:none;stroke-opacity:1"
             id="path4533"
             inkscape:connector-curvature="0" /><g
             id="g4535"
             transform="scale(10,10)"><text
               transform="matrix(1,0,0,-1,260.833,15.1668)"
               style="font-variant:normal;font-weight:normal;font-size:8.5px;font-family:Helvetica;-inkscape-font-specification:Helvetica;writing-mode:lr-tb;fill:#000000;fill-opacity:1;fill-rule:nonzero;stroke:none"
               id="text4537"><tspan
                 x="0 4.25 8.9759998"
                 y="0"
                 sodipodi:role="line"
                 id="tspan4539">x03</tspan></text>
</g><path
             d="m 3850,258.332 0,35.836"
             style="fill:none;stroke:#000000;stroke-width:5;stroke-linecap:butt;stroke-linejoin:round;stroke-miterlimit:10;stroke-dasharray:none;stroke-opacity:1"
             id="path4541"
             inkscape:connector-curvature="0" /><path
             d="m 3850,3034.17 0,-35"
             style="fill:none;stroke:#000000;stroke-width:5;stroke-linecap:butt;stroke-linejoin:round;stroke-miterlimit:10;stroke-dasharray:none;stroke-opacity:1"
             id="path4543"
             inkscape:connector-curvature="0" /><g
             id="g4545"
             transform="scale(10,10)"><text
               transform="matrix(1,0,0,-1,378.167,15.1668)"
               style="font-variant:normal;font-weight:normal;font-size:8.5px;font-family:Helvetica;-inkscape-font-specification:Helvetica;writing-mode:lr-tb;fill:#000000;fill-opacity:1;fill-rule:nonzero;stroke:none"
               id="text4547"><tspan
                 x="0 4.25 8.9759998"
                 y="0"
                 sodipodi:role="line"
                 id="tspan4549">x04</tspan></text>
</g><path
             d="m 330.832,258.332 35,0"
             style="fill:none;stroke:#000000;stroke-width:5;stroke-linecap:butt;stroke-linejoin:round;stroke-miterlimit:10;stroke-dasharray:none;stroke-opacity:1"
             id="path4551"
             inkscape:connector-curvature="0" /><path
             d="m 3850,258.332 -35.83,0"
             style="fill:none;stroke:#000000;stroke-width:5;stroke-linecap:butt;stroke-linejoin:round;stroke-miterlimit:10;stroke-dasharray:none;stroke-opacity:1"
             id="path4553"
             inkscape:connector-curvature="0" /><g
             id="g4555"
             transform="scale(10,10)"><text
               transform="matrix(1,0,0,-1,16.5,22.75)"
               style="font-variant:normal;font-weight:normal;font-size:8.5px;font-family:Helvetica;-inkscape-font-specification:Helvetica;writing-mode:lr-tb;fill:#000000;fill-opacity:1;fill-rule:nonzero;stroke:none"
               id="text4557"><tspan
                 x="0 4.25 8.9759998"
                 y="0"
                 sodipodi:role="line"
                 id="tspan4559">v01</tspan></text>
</g><path
             d="m 330.832,536.668 35,0"
             style="fill:none;stroke:#000000;stroke-width:5;stroke-linecap:butt;stroke-linejoin:round;stroke-miterlimit:10;stroke-dasharray:none;stroke-opacity:1"
             id="path4561"
             inkscape:connector-curvature="0" /><path
             d="m 3850,536.668 -35.83,0"
             style="fill:none;stroke:#000000;stroke-width:5;stroke-linecap:butt;stroke-linejoin:round;stroke-miterlimit:10;stroke-dasharray:none;stroke-opacity:1"
             id="path4563"
             inkscape:connector-curvature="0" /><g
             id="g4565"
             transform="scale(10,10)"><text
               transform="matrix(1,0,0,-1,16.5,50.5832)"
               style="font-variant:normal;font-weight:normal;font-size:8.5px;font-family:Helvetica;-inkscape-font-specification:Helvetica;writing-mode:lr-tb;fill:#000000;fill-opacity:1;fill-rule:nonzero;stroke:none"
               id="text4567"><tspan
                 x="0 4.25 8.9759998"
                 y="0"
                 sodipodi:role="line"
                 id="tspan4569">v02</tspan></text>
</g><path
             d="m 330.832,814.168 35,0"
             style="fill:none;stroke:#000000;stroke-width:5;stroke-linecap:butt;stroke-linejoin:round;stroke-miterlimit:10;stroke-dasharray:none;stroke-opacity:1"
             id="path4571"
             inkscape:connector-curvature="0" /><path
             d="m 3850,814.168 -35.83,0"
             style="fill:none;stroke:#000000;stroke-width:5;stroke-linecap:butt;stroke-linejoin:round;stroke-miterlimit:10;stroke-dasharray:none;stroke-opacity:1"
             id="path4573"
             inkscape:connector-curvature="0" /><g
             id="g4575"
             transform="scale(10,10)"><text
               transform="matrix(1,0,0,-1,16.5,78.3332)"
               style="font-variant:normal;font-weight:normal;font-size:8.5px;font-family:Helvetica;-inkscape-font-specification:Helvetica;writing-mode:lr-tb;fill:#000000;fill-opacity:1;fill-rule:nonzero;stroke:none"
               id="text4577"><tspan
                 x="0 4.25 8.9759998"
                 y="0"
                 sodipodi:role="line"
                 id="tspan4579">v03</tspan></text>
</g><path
             d="m 330.832,1091.67 35,0"
             style="fill:none;stroke:#000000;stroke-width:5;stroke-linecap:butt;stroke-linejoin:round;stroke-miterlimit:10;stroke-dasharray:none;stroke-opacity:1"
             id="path4581"
             inkscape:connector-curvature="0" /><path
             d="m 3850,1091.67 -35.83,0"
             style="fill:none;stroke:#000000;stroke-width:5;stroke-linecap:butt;stroke-linejoin:round;stroke-miterlimit:10;stroke-dasharray:none;stroke-opacity:1"
             id="path4583"
             inkscape:connector-curvature="0" /><g
             id="g4585"
             transform="scale(10,10)"><text
               transform="matrix(1,0,0,-1,16.5,106.083)"
               style="font-variant:normal;font-weight:normal;font-size:8.5px;font-family:Helvetica;-inkscape-font-specification:Helvetica;writing-mode:lr-tb;fill:#000000;fill-opacity:1;fill-rule:nonzero;stroke:none"
               id="text4587"><tspan
                 x="0 4.25 8.9759998"
                 y="0"
                 sodipodi:role="line"
                 id="tspan4589">v04</tspan></text>
</g><path
             d="m 330.832,1369.17 35,0"
             style="fill:none;stroke:#000000;stroke-width:5;stroke-linecap:butt;stroke-linejoin:round;stroke-miterlimit:10;stroke-dasharray:none;stroke-opacity:1"
             id="path4591"
             inkscape:connector-curvature="0" /><path
             d="m 3850,1369.17 -35.83,0"
             style="fill:none;stroke:#000000;stroke-width:5;stroke-linecap:butt;stroke-linejoin:round;stroke-miterlimit:10;stroke-dasharray:none;stroke-opacity:1"
             id="path4593"
             inkscape:connector-curvature="0" /><g
             id="g4595"
             transform="scale(10,10)"><text
               transform="matrix(1,0,0,-1,16.5,133.833)"
               style="font-variant:normal;font-weight:normal;font-size:8.5px;font-family:Helvetica;-inkscape-font-specification:Helvetica;writing-mode:lr-tb;fill:#000000;fill-opacity:1;fill-rule:nonzero;stroke:none"
               id="text4597"><tspan
                 x="0 4.25 8.9759998"
                 y="0"
                 sodipodi:role="line"
                 id="tspan4599">v05</tspan></text>
</g><path
             d="m 330.832,1646.67 35,0"
             style="fill:none;stroke:#000000;stroke-width:5;stroke-linecap:butt;stroke-linejoin:round;stroke-miterlimit:10;stroke-dasharray:none;stroke-opacity:1"
             id="path4601"
             inkscape:connector-curvature="0" /><path
             d="m 3850,1646.67 -35.83,0"
             style="fill:none;stroke:#000000;stroke-width:5;stroke-linecap:butt;stroke-linejoin:round;stroke-miterlimit:10;stroke-dasharray:none;stroke-opacity:1"
             id="path4603"
             inkscape:connector-curvature="0" /><g
             id="g4605"
             transform="scale(10,10)"><text
               transform="matrix(1,0,0,-1,16.5,161.583)"
               style="font-variant:normal;font-weight:normal;font-size:8.5px;font-family:Helvetica;-inkscape-font-specification:Helvetica;writing-mode:lr-tb;fill:#000000;fill-opacity:1;fill-rule:nonzero;stroke:none"
               id="text4607"><tspan
                 x="0 4.25 8.9759998"
                 y="0"
                 sodipodi:role="line"
                 id="tspan4609">v06</tspan></text>
</g><path
             d="m 330.832,1924.17 35,0"
             style="fill:none;stroke:#000000;stroke-width:5;stroke-linecap:butt;stroke-linejoin:round;stroke-miterlimit:10;stroke-dasharray:none;stroke-opacity:1"
             id="path4611"
             inkscape:connector-curvature="0" /><path
             d="m 3850,1924.17 -35.83,0"
             style="fill:none;stroke:#000000;stroke-width:5;stroke-linecap:butt;stroke-linejoin:round;stroke-miterlimit:10;stroke-dasharray:none;stroke-opacity:1"
             id="path4613"
             inkscape:connector-curvature="0" /><g
             id="g4615"
             transform="scale(10,10)"><text
               transform="matrix(1,0,0,-1,16.5,189.333)"
               style="font-variant:normal;font-weight:normal;font-size:8.5px;font-family:Helvetica;-inkscape-font-specification:Helvetica;writing-mode:lr-tb;fill:#000000;fill-opacity:1;fill-rule:nonzero;stroke:none"
               id="text4617"><tspan
                 x="0 4.25 8.9759998"
                 y="0"
                 sodipodi:role="line"
                 id="tspan4619">v07</tspan></text>
</g><path
             d="m 330.832,2201.67 35,0"
             style="fill:none;stroke:#000000;stroke-width:5;stroke-linecap:butt;stroke-linejoin:round;stroke-miterlimit:10;stroke-dasharray:none;stroke-opacity:1"
             id="path4621"
             inkscape:connector-curvature="0" /><path
             d="m 3850,2201.67 -35.83,0"
             style="fill:none;stroke:#000000;stroke-width:5;stroke-linecap:butt;stroke-linejoin:round;stroke-miterlimit:10;stroke-dasharray:none;stroke-opacity:1"
             id="path4623"
             inkscape:connector-curvature="0" /><g
             id="g4625"
             transform="scale(10,10)"><text
               transform="matrix(1,0,0,-1,16.5,217.083)"
               style="font-variant:normal;font-weight:normal;font-size:8.5px;font-family:Helvetica;-inkscape-font-specification:Helvetica;writing-mode:lr-tb;fill:#000000;fill-opacity:1;fill-rule:nonzero;stroke:none"
               id="text4627"><tspan
                 x="0 4.25 8.9759998"
                 y="0"
                 sodipodi:role="line"
                 id="tspan4629">v08</tspan></text>
</g><path
             d="m 330.832,2479.17 35,0"
             style="fill:none;stroke:#000000;stroke-width:5;stroke-linecap:butt;stroke-linejoin:round;stroke-miterlimit:10;stroke-dasharray:none;stroke-opacity:1"
             id="path4631"
             inkscape:connector-curvature="0" /><path
             d="m 3850,2479.17 -35.83,0"
             style="fill:none;stroke:#000000;stroke-width:5;stroke-linecap:butt;stroke-linejoin:round;stroke-miterlimit:10;stroke-dasharray:none;stroke-opacity:1"
             id="path4633"
             inkscape:connector-curvature="0" /><g
             id="g4635"
             transform="scale(10,10)"><text
               transform="matrix(1,0,0,-1,16.5,244.833)"
               style="font-variant:normal;font-weight:normal;font-size:8.5px;font-family:Helvetica;-inkscape-font-specification:Helvetica;writing-mode:lr-tb;fill:#000000;fill-opacity:1;fill-rule:nonzero;stroke:none"
               id="text4637"><tspan
                 x="0 4.25 8.9759998"
                 y="0"
                 sodipodi:role="line"
                 id="tspan4639">v09</tspan></text>
</g><path
             d="m 330.832,2756.67 35,0"
             style="fill:none;stroke:#000000;stroke-width:5;stroke-linecap:butt;stroke-linejoin:round;stroke-miterlimit:10;stroke-dasharray:none;stroke-opacity:1"
             id="path4641"
             inkscape:connector-curvature="0" /><path
             d="m 3850,2756.67 -35.83,0"
             style="fill:none;stroke:#000000;stroke-width:5;stroke-linecap:butt;stroke-linejoin:round;stroke-miterlimit:10;stroke-dasharray:none;stroke-opacity:1"
             id="path4643"
             inkscape:connector-curvature="0" /><g
             id="g4645"
             transform="scale(10,10)"><text
               transform="matrix(1,0,0,-1,16.5,272.583)"
               style="font-variant:normal;font-weight:normal;font-size:8.5px;font-family:Helvetica;-inkscape-font-specification:Helvetica;writing-mode:lr-tb;fill:#000000;fill-opacity:1;fill-rule:nonzero;stroke:none"
               id="text4647"><tspan
                 x="0 4.25 8.9759998"
                 y="0"
                 sodipodi:role="line"
                 id="tspan4649">v10</tspan></text>
</g><path
             d="m 330.832,3034.17 35,0"
             style="fill:none;stroke:#000000;stroke-width:5;stroke-linecap:butt;stroke-linejoin:round;stroke-miterlimit:10;stroke-dasharray:none;stroke-opacity:1"
             id="path4651"
             inkscape:connector-curvature="0" /><path
             d="m 3850,3034.17 -35.83,0"
             style="fill:none;stroke:#000000;stroke-width:5;stroke-linecap:butt;stroke-linejoin:round;stroke-miterlimit:10;stroke-dasharray:none;stroke-opacity:1"
             id="path4653"
             inkscape:connector-curvature="0" /><g
             id="g4655"
             transform="scale(10,10)"><text
               transform="matrix(1,0,0,-1,16.5,300.333)"
               style="font-variant:normal;font-weight:normal;font-size:8.5px;font-family:Helvetica;-inkscape-font-specification:Helvetica;writing-mode:lr-tb;fill:#000000;fill-opacity:1;fill-rule:nonzero;stroke:none"
               id="text4657"><tspan
                 x="0 4.25 8.9759998"
                 y="0"
                 sodipodi:role="line"
                 id="tspan4659">v11</tspan></text>
</g><path
             d="m 330.832,258.332 3519.168,0"
             style="fill:none;stroke:#000000;stroke-width:5;stroke-linecap:butt;stroke-linejoin:round;stroke-miterlimit:10;stroke-dasharray:none;stroke-opacity:1"
             id="path4661"
             inkscape:connector-curvature="0" /><path
             d="m 330.832,3034.17 3519.168,0"
             style="fill:none;stroke:#000000;stroke-width:5;stroke-linecap:butt;stroke-linejoin:round;stroke-miterlimit:10;stroke-dasharray:none;stroke-opacity:1"
             id="path4663"
             inkscape:connector-curvature="0" /><path
             d="m 330.832,258.332 0,2775.838"
             style="fill:none;stroke:#000000;stroke-width:5;stroke-linecap:butt;stroke-linejoin:round;stroke-miterlimit:10;stroke-dasharray:none;stroke-opacity:1"
             id="path4665"
             inkscape:connector-curvature="0" /><path
             d="m 3850,258.332 0,2775.838"
             style="fill:none;stroke:#000000;stroke-width:5;stroke-linecap:butt;stroke-linejoin:round;stroke-miterlimit:10;stroke-dasharray:none;stroke-opacity:1"
             id="path4667"
             inkscape:connector-curvature="0" /></g></g><g
         id="g4669"><g
           id="g4671"
           clip-path="url(#clipPath4673)"><path
             d="m 2466.67,1786.67 0,14.16 0.83,6.67 0,7.5 1.67,6.67 0,6.66 0.83,7.5 0,13.34 0.83,6.66 0,7.5 1.67,6.67 0,14.17 0.83,6.66 0,6.67 1.67,7.5 0,13.33 0.83,7.5 0,6.67 1.67,6.67 0,14.16 0.83,6.67 0,7.5 0.84,6.67 0,14.16 1.66,6.67 0,14.17 0.84,6.66 0,14.17 1.66,6.67 0,14.16 0.84,6.67 0,6.67 0.83,7.5 0,13.33 1.67,7.5 0,13.33 0.83,7.5 0,20.84 1.67,6.66 0,14.17 0.83,6.67 0,14.16 0.83,6.67 0,14.17 1.67,6.66 0,14.17 0.83,6.67 0,20.83 1.67,6.67 0,14.16 0.83,6.67 0,20.83 0.84,6.67 0,14.17 1.66,6.66 0,20.84 0.84,7.5 0,20.83 1.66,6.67 0,14.16 0.84,6.67 0,20.83 0.83,6.67 0,20.83 1.67,7.5 0,20.84 0.83,6.66 0,20.84 1.67,6.66 0,28.34 0.83,6.66 0,20.84 1.67,6.66 0,20.84 0.83,7.5 0,27.5 0.83,6.66 0,20.84 1.67,6.66 0,28.34 0.83,6.66 0,27.5 1.67,7.5 0,20.84 0.83,6.66 0,27.5 0.84,7.5 0,27.5 1.66,6.67 0,28.33 0.84,6.67 0,35 1.66,6.67 0,27.5 0.84,7.5 0,34.16 0.83,7.5 0,27.5 1.67,6.67 0,14.17"
             style="fill:none;stroke:#000000;stroke-width:10;stroke-linecap:butt;stroke-linejoin:round;stroke-miterlimit:10;stroke-dasharray:none;stroke-opacity:1"
             id="path4677"
             inkscape:connector-curvature="0" /><path
             d="m 2383.33,1100 0.84,6.67 1.66,6.66 0.84,7.5 1.66,6.67 0.84,6.67 0.83,7.5 2.5,6.66 1.67,6.67 0.83,7.5 0.83,6.67 1.67,6.66 0.83,7.5 1.67,6.67 0.83,6.67 0.84,7.5 1.66,6.66 0.84,6.67 1.66,7.5 0,6.67 0.84,6.66 0.83,7.5 1.67,6.67 0.83,6.67 1.67,7.5 0.83,6.66 1.67,6.67 0.83,7.5 0,6.67 0.83,6.66 1.67,7.5 0.83,6.67 1.67,6.67 0,7.5 0.83,6.66 0.84,6.67 1.66,7.5 0.84,6.67 0,6.66 1.66,7.5 0.84,6.67 0.83,6.67 0,7.5 1.67,6.66 0.83,6.67 0,7.5 1.67,6.67 0.83,6.66 0,7.5 0.83,6.67 1.67,6.67 0,6.66 0.83,7.5 1.67,6.67 0,6.67 0.83,7.5 0.84,6.66 0,6.67 1.66,7.5 0.84,6.67 0,6.66 1.66,7.5 0,6.67 0.84,6.67 1.66,7.5 0,6.66 0.84,6.67 0,7.5 0.83,6.67 0,6.66 1.67,7.5 0.83,6.67 0,6.67 1.67,7.5 0,6.66 0.83,6.67 0,7.5 0.83,6.67 0,6.66 1.67,7.5 0,6.67 0.83,6.67 0,7.5 1.67,6.66 0,6.67 0.83,7.5 0,6.67 0.84,6.66 0,7.5 1.66,6.67 0,6.67 0.84,7.5 0,6.66 1.66,6.67 0,7.5 0.84,6.67 0,6.66 0.83,7.5 0,6.67 1.67,6.67"
             style="fill:none;stroke:#000000;stroke-width:10;stroke-linecap:butt;stroke-linejoin:round;stroke-miterlimit:10;stroke-dasharray:none;stroke-opacity:1"
             id="path4679"
             inkscape:connector-curvature="0" /><path
             d="m 1814.17,412.5 28.33,7.5 25.83,6.668 23.34,6.664 20.83,7.5 20,6.668 19.17,6.668 17.5,7.5 16.66,6.664 15,6.668 14.17,7.5 14.17,6.668 12.5,6.664 11.66,7.5 11.67,6.668 10.83,6.668 10.84,7.5 9.16,6.664 9.17,6.668 10,7.5 7.5,6.668 8.33,6.664 8.34,7.5 8.33,6.668 6.67,6.668 7.5,7.5 6.66,6.664 5.84,6.668 7.5,7.5 5.83,6.668 5.83,6.664 5.84,7.5 5,6.668 5.83,6.668 4.17,7.5 5,6.664 5.83,6.668 5,6.668 3.33,7.5 4.17,6.664 5,6.668 3.33,7.5 5,6.668 3.34,6.664 5,7.5 3.33,6.668 3.33,6.668 3.34,7.5 4.16,6.664 3.34,6.668 3.33,7.5 2.5,6.668 3.33,6.664 3.34,7.5 2.5,6.668 3.33,6.668 2.5,7.5 3.33,6.664 2.5,6.668 2.5,7.5 3.34,6.668 2.5,6.664 2.5,7.5 2.5,6.668 1.66,6.668 2.5,7.5 2.5,6.664 2.5,6.668 2.5,7.5 2.5,6.668 1.67,6.664 2.5,7.5 2.5,6.668 0.83,6.668 2.5,7.5 2.5,6.664 2.5,6.668 0.84,7.5 2.5,6.668 1.66,6.664 1.67,7.5 2.5,6.668 1.67,6.668 1.66,7.5 1.67,6.664 0.83,6.668 2.5,7.5 0.84,6.67 2.5,6.66 1.66,7.5 0.84,6.67 2.5,6.67 0.83,7.5 1.67,6.66 1.66,6.67 1.67,6.67 0.83,7.5 1.67,6.66 0.83,6.67 2.5,7.5"
             style="fill:none;stroke:#000000;stroke-width:10;stroke-linecap:butt;stroke-linejoin:round;stroke-miterlimit:10;stroke-dasharray:none;stroke-opacity:1"
             id="path4681"
             inkscape:connector-curvature="0" /><path
             d="m 330.832,260 0,55.832 303.336,6.668 268.332,6.668 188.33,7.5 139.17,6.664 110.83,6.668 88.34,7.5 75.83,6.668 63.33,6.664 55,7.5 46.67,6.668 42.5,6.668 38.33,7.5 33.34,6.664 30,6.668"
             style="fill:none;stroke:#000000;stroke-width:10;stroke-linecap:butt;stroke-linejoin:round;stroke-miterlimit:10;stroke-dasharray:none;stroke-opacity:1"
             id="path4683"
             inkscape:connector-curvature="0" /></g></g><g
         id="g4685"><g
           id="g4687"
           clip-path="url(#clipPath4689)"><g
             id="g4693"
             transform="scale(10,10)"><text
               transform="matrix(0,1,1,0,10.0832,157.75)"
               style="font-variant:normal;font-weight:normal;font-size:9px;font-family:Helvetica;-inkscape-font-specification:Helvetica;writing-mode:lr-tb;fill:#000000;fill-opacity:1;fill-rule:nonzero;stroke:none"
               id="text4695"><tspan
                 x="0 4.5 9.5039997"
                 y="0"
                 sodipodi:role="line"
                 id="tspan4697">s03</tspan></text>
<text
               transform="matrix(1,0,0,-1,202.083,4.3332)"
               style="font-variant:normal;font-weight:normal;font-size:9px;font-family:Helvetica;-inkscape-font-specification:Helvetica;writing-mode:lr-tb;fill:#000000;fill-opacity:1;fill-rule:nonzero;stroke:none"
               id="text4699"><tspan
                 x="0 4.5 9.5039997"
                 y="0"
                 sodipodi:role="line"
                 id="tspan4701">s04</tspan></text>
</g></g></g></g><path
       style="opacity:1;fill:#003cff;fill-opacity:0.39215686;stroke:#ffffff;stroke-width:0.25517994;stroke-miterlimit:4;stroke-dasharray:none;stroke-dashoffset:0;stroke-opacity:1"
       d="m 41.880453,336.66805 0,-13.01076 1.920283,-0.12963 c 2.486388,-0.16784 2.486388,-0.94201 0,-1.10985 l -1.920283,-0.12963 0,-16.77604 0,-16.77604 1.888749,0 c 1.038812,0 2.007032,-0.19139 2.1516,-0.4253 0.162002,-0.26213 -0.562651,-0.4253 -1.88875,-0.4253 l -2.151599,0 0,-17.012 0,-17.012 2.151599,0 c 1.326099,0 2.050752,-0.16317 1.88875,-0.42529 -0.144568,-0.23392 -1.112788,-0.4253 -2.1516,-0.4253 l -1.888749,0 0,-16.77605 0,-16.77604 2.020174,-0.12963 c 2.615728,-0.16784 2.615728,-0.94201 0,-1.10985 l -2.020174,-0.12963 0,-16.77604 0,-16.77605 2.151599,0 c 1.326099,0 2.050752,-0.16317 1.88875,-0.4253 -0.144568,-0.23391 -1.112788,-0.4253 -2.1516,-0.4253 l -1.888749,0 0,-16.77604 0,-16.77604 2.020174,-0.12963 c 1.111096,-0.0713 2.020175,-0.32101 2.020175,-0.55493 0,-0.23391 -0.909079,-0.48363 -2.020175,-0.55493 l -2.020174,-0.12962 0,-16.77605 0,-16.77604 1.913849,0 c 1.052617,0 1.91385,-0.19138 1.91385,-0.4253 0,-0.23391 -0.861233,-0.4253 -1.91385,-0.4253 l -1.913849,0 0,-16.776043 0,-16.776043 2.020174,-0.129628 c 2.615728,-0.16784 2.615728,-0.942013 0,-1.109854 l -2.020174,-0.129627 0,-16.776043 0,-16.776044 1.888749,0 c 1.038812,0 2.007032,-0.191385 2.1516,-0.4253 0.162002,-0.262126 -0.562651,-0.4253 -1.88875,-0.4253 l -2.151599,0 0,-16.799345 0,-16.799346 72.726277,0 72.72629,0 0,1.91385 c 0,1.417666 0.16539,1.913849 0.63795,1.913849 0.47255,0 0.63794,-0.496183 0.63794,-1.913849 l 0,-1.91385 62.94439,0 62.94438,0 -0.003,3.721374 c -0.005,6.879504 -2.28808,69.665896 -2.96542,81.551254 -0.22663,3.976555 -0.61476,11.536255 -0.86252,16.799345 -0.81214,17.25198 -3.17573,55.37904 -3.59888,58.05344 -0.11104,0.70174 -0.59179,6.06052 -1.06834,11.90839 -1.17061,14.36469 -3.42637,34.83392 -4.94468,44.86914 -0.33621,2.22219 -0.79171,5.38005 -1.01222,7.01745 -0.2205,1.6374 -0.79426,5.17803 -1.27501,7.86805 -7.59564,42.50127 -17.78464,64.8198 -35.94417,78.73402 -19.91811,15.2617 -53.63928,22.01084 -125.03816,25.02582 -5.61396,0.23706 -12.12105,0.53268 -14.4602,0.65693 -4.30554,0.2287 -41.975343,1.19873 -67.516357,1.73861 l -13.92872,0.29442 0,-13.01076 z"
       id="path4703"
       inkscape:connector-curvature="0"
       transform="matrix(0.8,0,0,-0.8,0,312)" /><path
       style="opacity:1;fill:#003cff;fill-opacity:0.15686275;stroke:#ffffff;stroke-width:0.25517994;stroke-miterlimit:4;stroke-dasharray:none;stroke-dashoffset:0;stroke-opacity:1"
       d="m 42.305752,354.28785 0,-2.92153 12.227372,-0.2899 c 59.951676,-1.42138 68.441406,-1.68212 91.545806,-2.81161 65.88764,-3.22101 97.39743,-9.84154 117.29463,-24.64479 12.88299,-9.58477 21.53434,-22.94343 28.33541,-43.75307 5.32885,-16.30497 10.37961,-42.27012 13.00066,-66.83423 0.23711,-2.2222 0.61113,-5.66713 0.83114,-7.6554 0.22002,-1.98828 0.60094,-5.43321 0.8465,-7.6554 2.51412,-22.75215 5.70923,-73.05515 7.45583,-117.382771 0.35485,-9.005725 0.84337,-21.062977 1.08561,-26.793893 0.579,-13.698159 1.26347,-34.660165 1.2672,-38.808615 l 0.003,-3.296074 8.9313,0 8.9313,0 0,1.91385 c 0,1.052617 0.19138,1.913849 0.4253,1.913849 0.23391,0 0.4253,-0.861232 0.4253,-1.913849 l 0,-1.91385 72.93893,0 72.93893,0 0,16.799346 0,16.799345 -2.1265,0 c -1.16957,0 -2.1265,0.191385 -2.1265,0.4253 0,0.233915 0.95693,0.4253 2.1265,0.4253 l 2.1265,0 0,16.799346 0,16.799346 -2.1265,0 c -1.6067,0 -2.1265,0.155944 -2.1265,0.637949 0,0.482006 0.5198,0.63795 2.1265,0.63795 l 2.1265,0 0,16.799346 0,16.799345 -2.1265,0 c -1.16957,0 -2.1265,0.19139 -2.1265,0.4253 0,0.23392 0.95693,0.4253 2.1265,0.4253 l 2.1265,0 0,16.79935 0,16.79934 -2.1265,0 c -1.6067,0 -2.1265,0.15595 -2.1265,0.63795 0,0.48201 0.5198,0.63795 2.1265,0.63795 l 2.1265,0 0,16.79935 0,16.79934 -2.1265,0 c -1.16957,0 -2.1265,0.19139 -2.1265,0.4253 0,0.23392 0.95693,0.4253 2.1265,0.4253 l 2.1265,0 0,16.77605 0,16.77604 -1.98692,0.12963 c -2.83751,0.18512 -2.98535,1.19287 -0.17501,1.19287 l 2.16193,0 0,16.79935 0,16.79935 -2.1265,0 c -1.16957,0 -2.1265,0.19138 -2.1265,0.4253 0,0.23391 0.95693,0.42529 2.1265,0.42529 l 2.1265,0 0,17.012 0,17.012 -2.1265,0 c -1.16957,0 -2.1265,0.19138 -2.1265,0.4253 0,0.23391 0.95693,0.4253 2.1265,0.4253 l 2.1265,0 0,16.79934 0,16.79935 -2.1265,0 c -1.6067,0 -2.1265,0.15594 -2.1265,0.63795 0,0.482 0.5198,0.63795 2.1265,0.63795 l 2.1265,0 0,16.79934 0,16.79935 -72.93893,0 -72.93893,0 0,-2.1265 c 0,-1.16958 -0.19139,-2.1265 -0.4253,-2.1265 -0.23392,0 -0.4253,0.95692 -0.4253,2.1265 l 0,2.1265 -72.70298,0 -72.70298,0 -0.12963,-1.98693 c -0.18512,-2.83749 -1.19287,-2.98535 -1.19287,-0.17501 l 0,2.16194 -72.51364,0 -72.513628,0 0,-2.92153 z"
       id="path4705"
       inkscape:connector-curvature="0"
       transform="matrix(0.8,0,0,-0.8,0,312)" /></g></svg>